<svg xmlns="http://www.w3.org/2000/svg" viewBox="22.013406999999997 22.016607000000004 55.97688600000001 55.973186"><path d="m50 77.441c4.6289 0 8.3906-3.75 8.3906-8.3789v-10.68h10.672c2.25 0 4.3594-0.87109 5.9297-2.4492 1.5781-1.5781 2.4492-3.6914 2.4492-5.9297 0-4.6289-3.75-8.3789-8.3789-8.3789h-10.672v-10.68c0-2.2383-0.87891-4.3398-2.4609-5.9297-1.5781-1.5781-3.6914-2.4492-5.9297-2.4492-4.6211 0-8.3789 3.75-8.3789 8.3789v10.68h-10.68c-4.6289 0-8.3789 3.75-8.3789 8.3789s3.75 8.3789 8.3789 8.3789h10.68v10.68c0 4.6289 3.7617 8.3789 8.3789 8.3789z"/></svg>