<svg xmlns="http://www.w3.org/2000/svg" viewBox="-5.129300000000001 -6.0073 523.0866000000001 521.8846000000001" fill="#000"><path d="M128.425 415.935l-32.547-32.546c-3.319-3.318-8.698-3.318-12.016 0-3.318 3.318-3.318 8.698 0 12.016l32.546 32.546c1.66 1.658 3.834 2.489 6.008 2.489s4.349-0.829 6.008-2.489c3.318-3.318 3.318-8.698 0-12.016zM509.511 23.332L493.738 7.558c-7.688-7.689-19.948-8.437-28.516-1.743l-39.546 30.901c-4.862 3.799-7.866 9.511-8.243 15.671-0.29 4.754 1.021 9.425 3.634 13.319l-61.618 61.617c-0.563 0.563-1.202 1.013-1.94 1.357-0.706 0.333-1.452 0.536-2.238 0.605-5.525 0.502-10.73 2.942-14.657 6.87L191.628 285.142c-48.313-32.317-113.925-26.284-155.543 15.332C12.815 323.746-0.001 354.687 0 387.6c0.001 32.91 12.815 63.85 36.085 87.12 24.02 24.02 55.573 36.029 87.123 36.029 31.551 0 63.103-12.01 87.123-36.03 41.612-41.613 47.645-107.219 15.332-155.526L509.511 35.346c3.318-3.318 3.318-8.696 0-12.014zM131.703 281.811c16.593 1.296 32.977 6.447 47.657 15.6l-5.874 5.873c-3.317 3.316-3.318 8.693-0.002 12.012l5.005 5.008-3.5 3.5c-12.077-9.821-26.979-16.296-43.285-17.979V281.811zM114.711 281.83v23.996h0.001c-16.307 1.682-31.207 8.157-43.284 17.979l-17.066-17.063c22.084-18.237 43.317-26.617 65.07-28.372zM42.33 318.739l17.081 17.081c-9.82 12.077-16.295 26.977-17.976 43.284H17.329c1.757-21.366 10.436-42.322 25.001-59.374zM32.656 443.179c-8.743-14.185-14.001-30.234-15.327-47.082h24.106c0.905 8.777 3.216 17.139 6.671 24.882L32.656 443.179zM48.101 462.705c-1.656-1.657-3.245-3.363-4.778-5.107l14.281-20.519c4.903 6.484 10.747 12.213 17.32 17L54.33 468.416c-2.129-1.815-4.218-3.699-6.229-5.711zM114.712 493.4c-15.918-1.266-31.602-6.076-45.742-14.471l22.347-15.558c7.321 3.093 15.181 5.154 23.396 6.002V493.4zM57.99 387.6c0-35.963 29.257-65.219 65.218-65.219 35.962 0 65.219 29.258 65.219 65.219 0 35.962-29.258 65.219-65.219 65.219-35.961 0-65.218-29.258-65.218-65.219zM131.704 493.4v-24.028c16.305-1.682 31.206-8.156 43.283-17.977l17.058 17.058c-21.953 17.933-43.156 26.251-64.806 27.973zM204.065 456.443l-17.062-17.062c9.821-12.077 16.296-26.977 17.979-43.283h23.993c-0.773 20.089-9.152 41.321-23.927 58.683zM228.992 379.105h-24.011c-1.681-16.307-8.156-31.207-17.977-43.285l3.497-3.497 5.006 5.009c1.593 1.594 3.753 2.49 6.008 2.49s4.413-0.895 6.008-2.489l5.874-5.874c9.152 8.281 14.301 24.659 15.598 41.249zM201.518 319.31l-10.01-10.017L352.63 148.171c1.123-1.123 2.608-1.819 4.161-1.961 2.764-0.245 5.445-0.972 7.923-2.14 2.506-1.165 4.778-2.757 6.753-4.732l61.309-61.309 5.016 5.007L201.518 319.31zM449.811 71.017l-14.09-14.089c-1.264-1.264-1.375-2.739-1.328-3.505 0.046-0.767 0.335-2.217 1.746-3.318l39.546-30.901c0.828-0.648 1.819-0.966 2.808-0.966 1.175 0 2.345 0.451 3.23 1.334l9.766 9.766L449.811 71.017z"/></svg>