<svg xmlns="http://www.w3.org/2000/svg" data-name="Layer 1" x="0px" y="0px" viewBox="-0.01 -0.01 152.09 412.49"><defs><style>.cls-1{fill:none;}</style></defs><title>Chord-RAD</title><path class="cls-1" d="M247.16083,174.19464a37.56632,37.56632,0,0,0,39.98047-13.92212,43.61065,43.61065,0,0,0,7.94189-20.04883,69.47063,69.47063,0,0,0-.433-20.386,109.05848,109.05848,0,0,0-12.659-36.35346,69.47984,69.47984,0,0,0-12.323-16.24542,43.61022,43.61022,0,0,0-18.67737-10.77972,37.56558,37.56558,0,0,0-39.98016,13.92211,43.611,43.611,0,0,0-7.9422,20.04914,69.47931,69.47931,0,0,0,.433,20.38574,109.06189,109.06189,0,0,0,12.65931,36.35345,69.48149,69.48149,0,0,0,12.32269,16.24573A43.61149,43.61149,0,0,0,247.16083,174.19464Z" transform="translate(-173.04032 -43.76721)"></path><path class="cls-1" d="M250.99078,325.80536a37.5656,37.5656,0,0,0-39.98016,13.92212,43.60982,43.60982,0,0,0-7.9422,20.04883,69.4816,69.4816,0,0,0,.433,20.386,109.06823,109.06823,0,0,0,12.65931,36.35346,69.48658,69.48658,0,0,0,12.32269,16.24542,43.60845,43.60845,0,0,0,18.67737,10.77942,37.56632,37.56632,0,0,0,39.98047-13.92212,43.60932,43.60932,0,0,0,7.94189-20.04883,69.47071,69.47071,0,0,0-.433-20.38605,109.05853,109.05853,0,0,0-12.659-36.35345,69.47964,69.47964,0,0,0-12.323-16.24542A43.60653,43.60653,0,0,0,250.99078,325.80536Z" transform="translate(-173.04032 -43.76721)"></path><path class="cls-1" d="M289.93732,235.77118a109.099,109.099,0,0,0-7.94617-17.61383,69.475,69.475,0,0,0-12.323-16.24573,43.6128,43.6128,0,0,0-18.67737-10.77942,37.5656,37.5656,0,0,0-39.98016,13.92212,43.611,43.611,0,0,0-7.9422,20.04913,69.47962,69.47962,0,0,0,.433,20.38575,109.06828,109.06828,0,0,0,12.65931,36.35345,69.4817,69.4817,0,0,0,12.32269,16.24573,43.61463,43.61463,0,0,0,18.67737,10.77942,37.56632,37.56632,0,0,0,39.98047-13.92212,43.61046,43.61046,0,0,0,7.94189-20.04913,69.46866,69.46866,0,0,0-.433-20.38575A109.09337,109.09337,0,0,0,289.93732,235.77118Z" transform="translate(-173.04032 -43.76721)"></path><path d="M314.98767,282.74567a69.44263,69.44263,0,0,0,9.68842-27.99744,67.45956,67.45956,0,0,0-19.30115-55.42694,69.4484,69.4484,0,0,0-24.98261-15.92438c-1.94336-.70831-3.90045-1.29455-5.85968-1.84692a81.32824,81.32824,0,0,0,40.455-33.47748,69.44126,69.44126,0,0,0,9.68842-27.99713,67.45977,67.45977,0,0,0-19.30115-55.42725,69.44342,69.44342,0,0,0-24.98261-15.92407,81.19215,81.19215,0,0,0-97.22839,33.85712,69.44217,69.44217,0,0,0-9.68811,27.99743,67.46168,67.46168,0,0,0,19.30084,55.42725,69.446,69.446,0,0,0,24.98291,15.92407c1.94367.70831,3.90106,1.29456,5.86029,1.84693a81.32771,81.32771,0,0,0-40.45593,33.47747,69.44221,69.44221,0,0,0-9.68811,27.99744,67.46058,67.46058,0,0,0,19.30084,55.42694,69.442,69.442,0,0,0,24.98291,15.92407c1.94367.70832,3.90106,1.29425,5.86029,1.84693a81.32773,81.32773,0,0,0-40.45593,33.47748,69.44211,69.44211,0,0,0-9.68811,27.99743,67.46168,67.46168,0,0,0,19.30084,55.42725,69.442,69.442,0,0,0,24.98291,15.92407,81.19157,81.19157,0,0,0,97.22809-33.85712,69.44259,69.44259,0,0,0,9.68842-27.99743,67.46066,67.46066,0,0,0-19.30115-55.42725,69.44342,69.44342,0,0,0-24.98261-15.92407c-1.94366-.70831-3.90106-1.29456-5.86029-1.84693A81.3283,81.3283,0,0,0,314.98767,282.74567Zm-98.8269-135.57618A109.06189,109.06189,0,0,1,203.50146,110.816a69.47931,69.47931,0,0,1-.433-20.38574,43.611,43.611,0,0,1,7.9422-20.04914,37.56558,37.56558,0,0,1,39.98016-13.92211,43.61022,43.61022,0,0,1,18.67737,10.77972,69.47984,69.47984,0,0,1,12.323,16.24542,109.05848,109.05848,0,0,1,12.659,36.35346,69.47063,69.47063,0,0,1,.433,20.386,43.61065,43.61065,0,0,1-7.94189,20.04883,37.56632,37.56632,0,0,1-39.98047,13.92212,43.61149,43.61149,0,0,1-18.67737-10.77942A69.48149,69.48149,0,0,1,216.16077,147.16949ZM281.99115,352.8302a109.05853,109.05853,0,0,1,12.659,36.35345,69.47071,69.47071,0,0,1,.433,20.38605,43.60932,43.60932,0,0,1-7.94189,20.04883,37.56632,37.56632,0,0,1-39.98047,13.92212,43.60845,43.60845,0,0,1-18.67737-10.77942,69.48658,69.48658,0,0,1-12.32269-16.24542,109.06823,109.06823,0,0,1-12.65931-36.35346,69.4816,69.4816,0,0,1-.433-20.386,43.60982,43.60982,0,0,1,7.9422-20.04883,37.5656,37.5656,0,0,1,39.98016-13.92212,43.60653,43.60653,0,0,1,18.67737,10.77942A69.47964,69.47964,0,0,1,281.99115,352.8302Zm13.092-77.93365a43.61046,43.61046,0,0,1-7.94189,20.04913,37.56632,37.56632,0,0,1-39.98047,13.92212,43.61463,43.61463,0,0,1-18.67737-10.77942,69.4817,69.4817,0,0,1-12.32269-16.24573,109.06828,109.06828,0,0,1-12.65931-36.35345,69.47962,69.47962,0,0,1-.433-20.38575,43.611,43.611,0,0,1,7.9422-20.04913,37.5656,37.5656,0,0,1,39.98016-13.92212,43.6128,43.6128,0,0,1,18.67737,10.77942,69.475,69.475,0,0,1,12.323,16.24573,109.05853,109.05853,0,0,1,12.659,36.35345A69.46866,69.46866,0,0,1,295.08319,274.89655Z" transform="translate(-173.04032 -43.76721)"></path></svg>