<svg xmlns="http://www.w3.org/2000/svg" viewBox="-5.8954200000000005 1.3105799999999999 523.91484 508.70483999999993" fill="#000"><path d="M511.3 11.948c-1.583-3.565-5.477-5.501-9.274-4.613L396.259 32.091c-4.236.992-6.939 5.144-6.13 9.419l2.369 12.519L280.109 214.794 3.521 404.98c-3.027 2.082-4.28 5.935-3.056 9.399 1.224 3.464 4.616 5.672 8.282 5.393l177.813-13.687 56.477 94.827c1.479 2.483 4.146 3.967 6.977 3.967.405 0 .814-.03 1.223-.092 3.268-.497 5.908-2.923 6.678-6.137l61.915-258.394L429.114 76.929l79.389-55.006c3.205-2.778 4.38-6.965 2.797-10.975zM246.775 475.438l-48.835-81.996c-1.579-2.651-4.528-4.183-7.603-3.942L37.609 401.257 253.569 252.76l-13.261 18.969c-1.239 1.773-1.72 3.967-1.336 6.095.383 2.128 1.601 4.016 3.381 5.245l26.627 18.369c1.367.942 2.977 1.436 4.613 1.436.508 0 1.017-.048 1.523-.144 2.136-.407 4.019-1.655 5.228-3.461l13.522-20.209L246.775 475.438zM271.424 283.386l-13.117-9.049L403.146 67.151l8.869 6.118L271.424 283.386zM423.21 61.255L408.475 51.09l-.937-4.954 56.617-13.251L423.21 61.255z"/><path d="M223.026 367.896l-26.628-18.368c-3.694-2.547-8.752-1.618-11.298 2.074-2.547 3.693-1.618 8.751 2.075 11.298l26.628 18.368c1.408.971 3.014 1.437 4.604 1.437 2.58 0 5.119-1.227 6.694-3.511 2.553-3.693 1.623-8.752-2.075-11.298z"/><path d="M246.742 333.585l-26.629-18.367c-3.695-2.547-8.753-1.618-11.298 2.075-2.547 3.692-1.618 8.75 2.075 11.297l26.629 18.366c1.408.971 3.014 1.437 4.604 1.437 2.581 0 5.119-1.227 6.694-3.511 2.553-3.693 1.623-8.752-2.075-11.297z"/><circle cx="237.384" cy="416.793" r="8.094"/><circle cx="244.977" cy="392.424" r="8.094"/></svg>