<svg xmlns="http://www.w3.org/2000/svg" viewBox="-5.12001 83.73199000000001 522.2410199999999 344.53601999999995" fill="#000"><path d="M503.248 88.852H8.752C3.918 88.852 0 92.771 0 97.604v316.792c0 4.833 3.918 8.752 8.752 8.752h494.497c4.833 0 8.752-3.918 8.752-8.752V97.604c0-4.833-3.919-8.752-8.752-8.752zM117.796 405.645H49.009v-239.78h42.108v143.064c0 4.832 3.918 8.75 8.752 8.75h17.927V405.645zM108.62 300.177V165.864h35.855v134.313H108.62zM204.098 405.646H135.3v-87.967h17.928c4.833 0 8.752-3.918 8.752-8.752V165.864h42.119V405.646zM290.388 405.646H221.6V165.864h.001h42.108v143.064c0 4.833 3.918 8.752 8.752 8.752h17.927V405.646zM281.213 300.177V165.864h35.855v134.313H281.213zM376.69 405.646h-68.798v-87.967h17.928c4.833 0 8.752-3.918 8.752-8.752V165.864h15.44v143.064c0 4.833 3.918 8.752 8.752 8.752h17.927V405.646zM367.514 300.177V165.864h35.855v134.313H367.514zM462.991 405.646h-68.798v-.001v-87.965h17.928c4.833 0 8.752-3.918 8.752-8.752V165.864h42.119V405.646zM494.497 405.645h-14.003V157.113c0-4.833-3.918-8.752-8.752-8.752H40.257c-4.833 0-8.752 3.918-8.752 8.752v248.533H17.503v-299.29h476.994V405.645z"/></svg>