<?xml version="1.0" encoding="utf-8"?>
<svg xmlns="http://www.w3.org/2000/svg" version="1.1" x="0px" y="0px" style="enable-background:new 0 0 100 100;" viewBox="13.384 5.851 73.2 89.345">
  <path class="shackle" fill-rule="evenodd" d="M 24.7 39.7 L 72.5 39.8 L 72.5 29 C 72.5 16.1 63.2 6 49.9 6 C 36.6 6 27.5 16.3 27.5 29 L 27.5 39.7 C 27.5 39.8 27.5 39.8 27.5 39.7 L 24.7 39.7 Z M 33.1 39.8 L 33.1 29 C 33.1 19.4 39.7 11.6 49.9 11.6 C 60 11.6 66.9 19.2 66.9 29 L 66.9 39.7 C 66.9 39.8 66.9 39.8 66.9 39.7 C 66.9 39.7 66.927 40.359 66.927 40.359 L 33.111 40.319 C 33.111 40.419 33.1 39.8 33.1 39.8 Z"/>
  <path class="lock-body" fill-rule="evenodd" d="M24.7,38.8c-6.2,0-11.2,5-11.3,11.3v33.8c0,6.2,5,11.2,11.3,11.3h50.6c6.2,0,11.2-5,11.3-11.3V50C86.6,43.8,81.5,38.8,75.3,38.8H24.7z M80.9,83.8c0,3.1-2.5,5.6-5.6,5.6H24.7c-3.1,0-5.6-2.5-5.6-5.6V50c0-3.1,2.5-5.6,5.6-5.6h50.6c3.1,0,5.6,2.5,5.6,5.6V83.8z M55.6,61.3c0,2.1-1.1,3.9-2.8,4.9h-0.1c0,0,0.1,0,0.1,0v9.2c0,1.6-1.3,2.8-2.8,2.8c-1.6,0-2.8-1.3-2.8-2.8v-9.2c0,0,0.1,0,0.1,0h-0.1c-1.7-1-2.8-2.8-2.8-4.9c0-3.1,2.5-5.6,5.6-5.6C53.1,55.6,55.6,58.1,55.6,61.3z"/>
</svg>