<svg xmlns="http://www.w3.org/2000/svg" width="400" height="400" viewBox="17.546 26.541 363.324 358.12"><path d="M338.048 31.595C337.428 32.215 332.042 40.327 326.078 49.623L315.234 66.524 281.211 98.376C241.788 135.283 245.365 132.512 236.328 133.151 201.211 135.633 172.372 141.696 127.816 155.962 52.530 180.066 21.108 213.085 25.017 263.986 27.786 300.044 47.725 331.416 81.908 353.495 124.643 381.099 179.722 370.172 207.808 328.518 233.991 289.688 262.514 211.175 266.057 168.185 266.850 158.557 267.514 156.850 272.077 152.715 274.329 150.673 281.270 144.200 287.500 138.329 293.730 132.459 305.156 121.712 312.891 114.446 320.625 107.181 328.959 99.331 331.411 97.001 336.416 92.245 339.032 90.585 358.982 79.500 377.308 69.317 376.083 70.550 375.473 62.891 375.200 59.453 374.618 52.072 374.182 46.487 373.203 33.980 374.590 35.059 356.250 32.543 338.465 30.103 339.487 30.156 338.048 31.595M231.207 144.974C230.648 145.647 226.912 149.018 222.905 152.466 212.220 161.658 212.283 162.575 224.470 175.311 235.112 186.431 235.194 186.434 246.425 176.172 250.892 172.090 254.690 168.750 254.866 168.750 255.663 168.750 249.564 195.527 245.655 209.186 231.779 257.682 208.408 309.902 191.727 329.688 164.390 362.111 122.156 366.583 83.809 341.114 75.140 335.357 75.239 336.545 82.889 330.013 92.730 321.610 92.888 322.702 79.823 308.801 68.388 296.635 69.316 296.846 61.357 304.614 53.580 312.205 54.763 312.134 50.481 305.264 23.990 262.761 34.709 216.120 76.797 190.753 105.996 173.154 170.744 152.590 219.922 145.297 232.383 143.450 232.474 143.447 231.207 144.974M160.493 185.014C129.336 195.785 153.837 250.785 189.790 250.781 211.211 250.778 218.743 226.535 204.047 204.894 193.264 189.017 174.151 180.292 160.493 185.014M82.979 225.023C77.951 229.666 76.677 227.919 114.973 268.890 164.543 321.924 159.367 317.270 164.275 313.224 169.541 308.884 169.985 309.490 134.017 271.875 130.114 267.793 122.357 259.542 116.780 253.539 84.913 219.240 87.176 221.148 82.979 225.023" fill="#000"/></svg>