<svg xmlns="http://www.w3.org/2000/svg" x="0px" y="0px" viewBox="5 5 90 90"><title>button</title><g data-name="38"><path d="M23.664,58.522,20.177,76.193a3.092,3.092,0,0,0,3.63,3.63l17.671-3.487a3.091,3.091,0,0,0,1.587-.846l49.805-49.8a7.273,7.273,0,0,0,0-10.285L84.6,7.13a7.273,7.273,0,0,0-10.285,0L24.51,56.935A3.094,3.094,0,0,0,23.664,58.522ZM78.685,11.5a1.094,1.094,0,0,1,1.545,0L88.5,19.77a1.092,1.092,0,0,1,0,1.544l-6.277,6.278-9.814-9.814Zm-49.14,49.14L68.038,22.148l9.814,9.814L39.359,70.455,27.133,72.867Zm64.983-18.2v35.91A16.668,16.668,0,0,1,77.879,95H21.649A16.668,16.668,0,0,1,5,78.351V22.121A16.668,16.668,0,0,1,21.649,5.472h35.91a3.09,3.09,0,1,1,0,6.18H21.649A10.482,10.482,0,0,0,11.18,22.121v56.23A10.482,10.482,0,0,0,21.649,88.82h56.23A10.482,10.482,0,0,0,88.348,78.351V42.441a3.09,3.09,0,1,1,6.18,0Z"></path></g></svg>