<svg xmlns="http://www.w3.org/2000/svg" xmlns:xlink="http://www.w3.org/1999/xlink" version="1.1" x="0px" y="0px" style="enable-background:new 0 0 100 100;" xml:space="preserve" viewBox="11.2 1 76.7 97.9"><path d="M84.3,43.2L24.1,2.4c-1.4-0.9-3-1.4-4.6-1.4c-4.6,0-8.3,3.7-8.3,8.2v81.5c0,4.5,3.7,8.2,8.3,8.2h0c1.6,0,3.2-0.5,4.6-1.4  l60.2-40.8c2.3-1.5,3.6-4.1,3.6-6.8S86.6,44.7,84.3,43.2z M81.7,52.9L21.5,93.7c-0.6,0.4-1.3,0.6-2,0.6h0c-1.7,0-3.5-1.4-3.5-3.5  V9.2c0-2.2,1.8-3.5,3.5-3.5c0.7,0,1.4,0.2,2,0.6l60.2,40.8c1,0.7,1.5,1.7,1.5,2.9S82.6,52.3,81.7,52.9z"></path></svg>