<svg xmlns:inkscape="http://www.inkscape.org/namespaces/inkscape" xmlns:sodipodi="http://sodipodi.sourceforge.net/DTD/sodipodi-0.dtd" xmlns="http://www.w3.org/2000/svg" xmlns:svg="http://www.w3.org/2000/svg" xmlns:rdf="http://www.w3.org/1999/02/22-rdf-syntax-ns#" xmlns:cc="http://creativecommons.org/ns#" xmlns:dc="http://purl.org/dc/elements/1.1/" viewBox="0 0 10.583333 13.2291675" version="1.1" x="0px" y="0px"><g transform="translate(0,0.5291667)"><path style="color:#000000;paint-order:fill markers stroke;" d="m 2.2678138,0.26458547 c -0.485349,0 -0.884853,0.397688 -0.884853,0.88330203 v 7.229742 c 0,0.485615 0.399504,0.882785 0.884853,0.882785 h 6.047698 c 0.485349,0 0.884853,-0.39717 0.884853,-0.882785 v -6.134013 a 0.26465539,0.26465539 0 0 0 -0.07598,-0.187618 l -1.71492,-1.71491803 a 0.26465539,0.26465539 0 0 0 -0.187618,-0.07649 h -0.609369 -2.643187 z m 0,0.529775 h 1.437885 V 2.0012125 c 0,0.385173 0.317747,0.703437 0.70292,0.703437 h 1.766087 c 0.385173,0 0.703437,-0.318263 0.703437,-0.703437 V 0.79436047 h 0.234135 l 1.558829,1.55882903 v 6.02444 c 0,0.201165 -0.154166,0.355595 -0.355595,0.355595 h -0.300809 v -2.946062 c 0,-0.460147 -0.377672,-0.83782 -0.837819,-0.83782 h -3.770443 c -0.460147,0 -0.837819,0.377673 -0.837819,0.83782 v 2.946062 h -0.300808 c -0.20143,0 -0.355595,-0.15443 -0.355595,-0.355595 v -7.229742 c 0,-0.20116303 0.154165,-0.35352703 0.355595,-0.35352703 z m 1.967143,0 h 2.113412 V 2.0012125 c 0,0.100722 -0.07294,0.174179 -0.173663,0.174179 h -1.766087 c -0.100723,0 -0.173662,-0.07345 -0.173662,-0.174179 z M 3.4064408,5.4785995 h 3.770443 c 0.176006,0 0.308562,0.132556 0.308562,0.308563 v 2.946062 h -4.387566 v -2.946062 c 0,-0.176007 0.132554,-0.308563 0.308561,-0.308563 z" fill="#000000" fill-rule="evenodd" stroke-width="1.00017" stroke-linecap="round" stroke-linejoin="round"/></g><text x="0" y="25.583334" fill="#000000" font-size="5px" font-weight="bold" font-family="'Helvetica Neue', Helvetica, Arial-Unicode, Arial, Sans-serif">Created by Alzam</text><text x="0" y="30.583334" fill="#000000" font-size="5px" font-weight="bold" font-family="'Helvetica Neue', Helvetica, Arial-Unicode, Arial, Sans-serif">from the Noun Project</text></svg>