<svg xmlns="http://www.w3.org/2000/svg" viewBox="10.032869999999996 9.14287000000001 79.93925999999999 81.71526"><path d="M60.16 25.588L25.516 43.515l2.104 28.243c-1.771-1.438-4.026-2.303-6.486-2.303-5.688 0-10.3 4.612-10.3 10.302 0 5.688 4.611 10.3 10.3 10.3 5.561 0 10.079-4.408 10.281-9.919h.02l-1.526-24.014 24.926-10.181.763 15.515c-1.771-1.438-4.026-2.303-6.485-2.303-5.689 0-10.301 4.612-10.301 10.3 0 5.689 4.611 10.302 10.301 10.302 5.56 0 10.079-4.408 10.281-9.92h.019l.492-28.999 23.924-9.772.763 15.515c-1.771-1.438-4.026-2.302-6.485-2.302-5.689 0-10.3 4.61-10.3 10.3 0 5.688 4.61 10.3 10.3 10.3 5.56 0 10.079-4.408 10.281-9.919h.02l.763-45.016L60.16 25.588zM54.069 41.931l-24.162 8.654-.763-5.271 24.925-11.706V41.931zM83.063 27.053l-23.069 8.262.1-5.796 22.97-10.788V27.053z"/></svg>