<svg xmlns="http://www.w3.org/2000/svg" xmlns:xlink="http://www.w3.org/1999/xlink" version="1.1" x="0px" y="0px" enable-background="new 0 0 100 100" xml:space="preserve" viewBox="10.83 9.94 78.34 80.11"><path d="M60.16,25.588L25.516,43.515l2.104,28.243c-1.771-1.438-4.026-2.303-6.486-2.303c-5.688,0-10.3,4.612-10.3,10.302  c0,5.688,4.611,10.3,10.3,10.3c5.561,0,10.079-4.408,10.281-9.919h0.02l-1.526-24.014l24.926-10.181l0.763,15.515  c-1.771-1.438-4.026-2.303-6.485-2.303c-5.689,0-10.301,4.612-10.301,10.3c0,5.689,4.611,10.302,10.301,10.302  c5.56,0,10.079-4.408,10.281-9.92h0.019l0.492-28.999l23.924-9.772l0.763,15.515c-1.771-1.438-4.026-2.302-6.485-2.302  c-5.689,0-10.3,4.61-10.3,10.3c0,5.688,4.61,10.3,10.3,10.3c5.56,0,10.079-4.408,10.281-9.919h0.02l0.763-45.016L60.16,25.588z   M54.069,41.931l-24.162,8.654l-0.763-5.271l24.925-11.706V41.931z M83.063,27.053l-23.069,8.262l0.1-5.796l22.97-10.788V27.053z"></path></svg>