<svg xmlns="http://www.w3.org/2000/svg" viewBox="113.74955 -6.166449999999996 284.49890000000005 524.3258999999998" fill="#000"><path d="M390.093 54.21l-60.99-52.144c-3.619-3.092-9.054-2.666-12.144.95-3.092 3.615-2.667 9.052.949 12.144l43.258 36.983h-96.554V34.685c0-4.757-3.855-8.613-8.613-8.613-4.757 0-8.613 3.856-8.613 8.613v17.459h-96.554l43.257-36.983c3.615-3.092 4.04-8.528.95-12.144-3.092-3.616-8.528-4.04-12.144-.95L121.906 54.21c-1.914 1.637-3.016 4.029-3.016 6.547v109.874c0 4.757 3.856 8.613 8.613 8.613h119.883v264.315l-61.947 53.299c-3.606 3.102-4.014 8.541-.911 12.147 1.703 1.98 4.111 2.995 6.532 2.995 1.989 0 3.987-.686 5.614-2.084l50.712-43.632v37.103c0 4.757 3.856 8.613 8.613 8.613 4.758 0 8.613-3.856 8.613-8.613v-37.103l50.711 43.632c3.605 3.103 9.044 2.694 12.147-.911 3.102-3.606 2.694-9.044-.912-12.147l-61.946-53.299V179.243h119.883c4.758 0 8.613-3.857 8.613-8.613V60.757c0-2.518-1.102-4.91-3.016-6.547zM136.116 69.37h96.556l-96.556 82.562V69.37zM247.386 162.017H150.83l96.556-82.563V162.017zM264.613 162.017V79.454l96.556 82.563H264.613zM375.881 151.932L279.325 69.37h96.556V151.932z"/></svg>