<svg xmlns="http://www.w3.org/2000/svg" viewBox="13.922504999999987 9.204205000000002 72.15887 81.59949"><path d="m81.383 17.43h-16.254v-2.8203c0-2.5391-2.0664-4.6055-4.6055-4.6055h-21.047c-2.5391 0-4.6055 2.0664-4.6055 4.6055v2.8203h-16.254c-2.1484 0-3.8945 1.7461-3.8945 3.8945v6.5547c0 2.1484 1.7461 3.8945 3.8945 3.8945h.52344v50.855c0 4.0664 3.3086 7.375 7.375 7.375h46.973c4.0664 0 7.375-3.3086 7.375-7.375v-50.859h.52344c2.1484 0 3.8945-1.7461 3.8945-3.8945v-6.5547c0-2.1484-1.7461-3.8945-3.8945-3.8945zm-43.312-2.8203c0-.77734.63281-1.4062 1.4062-1.4062h21.047c.77734 0 1.4062.63281 1.4062 1.4062v2.8203h-23.859zm39.59 68.02c0 2.3008-1.8711 4.1758-4.1758 4.1758l-46.969-.003907c-2.3008 0-4.1758-1.8711-4.1758-4.1758v-50.855h55.32zm4.418-54.75c0 .375-.31641.69531-.69531.69531l-62.766-.003907c-.375 0-.69531-.31641-.69531-.69531v-6.5547c0-.375.31641-.69531.69531-.69531h62.77c.375 0 .69531.31641.69531.69531v6.5547zm-19.047 48.652v-34.484c0-.88281.71484-1.6016 1.6016-1.6016.88281 0 1.6016.71484 1.6016 1.6016v34.484c0 .88281-.71484 1.6016-1.6016 1.6016-.88281 0-1.6016-.71484-1.6016-1.6016zm-14.629 0v-34.484c0-.88281.71484-1.6016 1.6016-1.6016.88281 0 1.6016.71484 1.6016 1.6016v34.484c0 .88281-.71484 1.6016-1.6016 1.6016-.88281 0-1.6016-.71484-1.6016-1.6016zm-14.633 0v-34.484c0-.88281.71484-1.6016 1.6016-1.6016.88281 0 1.6016.71484 1.6016 1.6016v34.484c0 .88281-.71484 1.6016-1.6016 1.6016-.88281 0-1.6016-.71484-1.6016-1.6016z"/></svg>